<?xml version="1.0" encoding="UTF-8"?>
<svg width="65px" height="65px" viewBox="0 0 65 65" version="1.1" xmlns="http://www.w3.org/2000/svg" xmlns:xlink="http://www.w3.org/1999/xlink">
    <title>Group 10</title>
    <g id="Desktop" stroke="none" stroke-width="1" fill="none" fill-rule="evenodd">
        <g id="v2-LMS-short-course-details-1" transform="translate(-995.000000, -322.000000)">
            <g id="Group-10" transform="translate(995.000000, 322.000000)">
                <g id="Group-3" fill="#16A4E9">
                    <g id="Group-4">
                        <ellipse id="Oval-Copy" cx="32.75" cy="32.5" rx="32.25" ry="32"></ellipse>
                    </g>
                </g>
                <g id="noun_User_4183958" transform="translate(22.000000, 19.000000)" fill="#FFFFFF">
                    <g id="Group">
                        <g>
                            <g transform="translate(4.400033, 0.000002)" id="Oval">
                                <circle cx="6.6000011" cy="6.6000011" r="6.6000011"></circle>
                            </g>
                            <path d="M15.5001,14.1625 C16.709,14.7048 17.8222,15.466 18.7781,16.4219 C20.8406,18.4844 22,21.2828 22,24.2 L22,25.3 C22,25.9072 21.5072,26.4 20.9,26.4 L1.1,26.4 C0.4928,26.4 0,25.9072 0,25.3 C0,25.3 0,24.8787 0,24.2 C0,21.2828 1.1594,18.4844 3.2219,16.4219 C4.1778,15.466 5.291,14.7048 6.4999,14.1625 C7.8177,14.949 9.3566,15.4 11,15.4 C12.6434,15.4 14.1823,14.949 15.5001,14.1625 Z" id="Path"></path>
                        </g>
                    </g>
                </g>
            </g>
        </g>
    </g>
</svg>